# xmcd
#
# Track frame offsets: 
#        150
#        20152
#        21241
#        30971
#        43463
#        44962
#        50573
#        58143
#        63842
#        64542
#        76791
#        86883
#        97712
#        98640
#        100177
#        113746
#        124730
#        132502
#        144321
#        151908
#        154434
#        166256
#        177791
#        186731
#        195760
#        206612
#        219847
#        228202
#        237979
#        239041
#        251853
#        261413
#        274480
#        287987
#
# Disc length: 3981 seconds
#
# Revision: 25
# Processed by: cddbd v1.5.2PL0 Copyright (c) Steve Scherf et al.
# Submitted via: ExactAudioCopyFreeDBPlugin 1.0
#
DISCID=f50f8b22
DTITLE=The Beatles - The Beatles - Anthology 1 - [CD1)
DYEAR=1995
DGENRE=Beat
TTITLE0=Free as a Bird
TTITLE1=Speech: John Lennon
TTITLE2=That'll be the Day
TTITLE3=In Spite of all the Danger
TTITLE4=Speech: Paul McCartney
TTITLE5=Hallelujah, i love her so
TTITLE6=You'll be mine
TTITLE7=Cayenne
TTITLE8=Speech: Paul
TTITLE9=My Bonnie
TTITLE10=Ain't she sweet
TTITLE11=Cry for a Shadow
TTITLE12=Speech: John
TTITLE13=Speech: Brian Epstein
TTITLE14=Searchin'
TTITLE15=Three cool Cats
TTITLE16=The Sheik of Araby
TTITLE17=Like dreamers do
TTITLE18=Hello little Girl
TTITLE19=Speech: Brian Epstein
TTITLE20=Besame Mucho
TTITLE21=Love me do
TTITLE22=How do you do it
TTITLE23=Please please me
TTITLE24=One After 909 (Sequence)
TTITLE25=One After 909
TTITLE26=Lend me your comb
TTITLE27=I'll get you
TTITLE28=Speech: John
TTITLE29=I saw her standing there
TTITLE30=From me to you
TTITLE31=Money (That's what i want)
TTITLE32=You really got a hold on me
TTITLE33=Roll over Beethoven
EXTD=YEAR: 1995
EXTT0=
EXTT1=
EXTT2=
EXTT3=
EXTT4=
EXTT5=
EXTT6=
EXTT7=
EXTT8=
EXTT9=
EXTT10=
EXTT11=
EXTT12=
EXTT13=
EXTT14=
EXTT15=
EXTT16=
EXTT17=
EXTT18=
EXTT19=
EXTT20=
EXTT21=
EXTT22=
EXTT23=
EXTT24=
EXTT25=
EXTT26=
EXTT27=
EXTT28=
EXTT29=
EXTT30=
EXTT31=
EXTT32=
EXTT33=
PLAYORDER=
